<svg xmlns="http://www.w3.org/2000/svg" width="12.614" height="12.614" viewBox="0 0 12.614 12.614">
  <g id="phone-icon" transform="translate(-0.193 -0.193)">
    <path id="Path" d="M11.835,8.7l-1.482-.715a1.179,1.179,0,0,0-1.511.3L7.9,9.324a.574.574,0,0,1-.73.1A12.522,12.522,0,0,1,4.958,7.656,12.522,12.522,0,0,1,3.185,5.443a.574.574,0,0,1,.1-.73l1.046-.941a1.178,1.178,0,0,0,.3-1.511L3.918.779A1.077,1.077,0,0,0,2.17.254,7.184,7.184,0,0,0,.746,1.421C-.837,3.055.175,6.671,3.059,9.555s6.5,3.9,8.134,2.313a7.184,7.184,0,0,0,1.167-1.423A1.077,1.077,0,0,0,11.835,8.7Z" transform="translate(0.193 0.193)" fill="#fff"/>
  </g>
</svg>
