<svg id="Component_3_1" data-name="Component 3 – 1" xmlns="http://www.w3.org/2000/svg" width="55" height="54" viewBox="0 0 55 54">
  <g id="Ellipse_20" data-name="Ellipse 20" fill="none" stroke="#fff" stroke-width="1">
    <ellipse cx="27.5" cy="27" rx="27.5" ry="27" stroke="none"/>
    <ellipse cx="27.5" cy="27" rx="27" ry="26.5" fill="none"/>
  </g>
  <g id="Layer_4" data-name="Layer 4" transform="translate(11.016 9.831)">
    <path id="Path_4692" data-name="Path 4692" d="M28.625,24a4.625,4.625,0,1,0,4.625,4.625A4.625,4.625,0,0,0,28.625,24Zm0,6.937a2.312,2.312,0,1,1,2.312-2.312A2.312,2.312,0,0,1,28.625,30.937Z" transform="translate(-11.86 -11.86)" fill="#fff"/>
    <circle id="Ellipse_21" data-name="Ellipse 21" cx="1.5" cy="1.5" r="1.5" transform="translate(14.984 15.169)" fill="#fff"/>
    <path id="Path_4693" data-name="Path 4693" d="M28.7,41.738a5.781,5.781,0,0,1-1.983-.358L24.19,48.461a13.267,13.267,0,0,0,9.03,0L30.688,41.38A5.781,5.781,0,0,1,28.7,41.738Z" transform="translate(-11.94 -19.193)" fill="#fff"/>
    <path id="Path_4694" data-name="Path 4694" d="M10.52,21.33A13.3,13.3,0,0,0,9,27.5a8.557,8.557,0,0,0,.052,1.156h7.579a5.9,5.9,0,0,1-.116-1.156,5.781,5.781,0,0,1,1.069-3.341ZM15.359,27.5H11.89V26.342h3.468Zm0-2.312H11.89V24.03h3.468Z" transform="translate(-5.532 -10.734)" fill="#fff"/>
    <path id="Path_4695" data-name="Path 4695" d="M47.214,21.33,40.15,24.157A5.781,5.781,0,0,1,41.219,27.5a5.9,5.9,0,0,1-.116,1.156h7.579c.029-.382.052-.769.052-1.156A13.3,13.3,0,0,0,47.214,21.33ZM45.844,27.5H42.376V26.342h3.468Zm0-2.312H42.376V24.03h3.468Z" transform="translate(-18.674 -10.734)" fill="#fff"/>
    <path id="Path_4696" data-name="Path 4696" d="M19.764,3A16.764,16.764,0,1,0,36.529,19.764,16.764,16.764,0,0,0,19.764,3Zm0,31.216A14.452,14.452,0,1,1,34.216,19.764,14.452,14.452,0,0,1,19.764,34.216Z" transform="translate(-3 -3)" fill="#fff"/>
  </g>
</svg>
