<svg id="Group_2871" data-name="Group 2871" xmlns="http://www.w3.org/2000/svg" width="22.321" height="21.412" viewBox="0 0 22.321 21.412">
  <path id="Path_4675" data-name="Path 4675" d="M-501.341,168.7h-.053c-.127-.028-.255-.052-.38-.085a1.6,1.6,0,0,1-1.083-2.146q.841-2.6,1.687-5.19c.148-.458.1-.6-.278-.879l-1.731-1.259q-1.357-.985-2.715-1.97a1.548,1.548,0,0,1-.695-1.647,1.58,1.58,0,0,1,1.693-1.283q2.723,0,5.446,0c.471,0,.6-.1.748-.541q.428-1.316.854-2.633c.282-.869.561-1.74.848-2.607a1.582,1.582,0,0,1,2.117-1.052,1.7,1.7,0,0,1,.988,1.163c.545,1.7,1.1,3.395,1.65,5.091.164.5.268.579.8.579q2.7,0,5.393,0a1.637,1.637,0,0,1,1.505.759,1.585,1.585,0,0,1-.5,2.18q-2.187,1.6-4.382,3.183c-.445.324-.484.456-.313.984.562,1.73,1.128,3.459,1.681,5.192a1.576,1.576,0,0,1-1.11,2.083l-.322.08h-.053a3.3,3.3,0,0,1-1.593-.817q-1.921-1.4-3.847-2.793c-.4-.289-.554-.291-.946-.007q-1.892,1.373-3.783,2.747A3.647,3.647,0,0,1-501.341,168.7Z" transform="translate(506.625 -147.285)" fill="#cebc19"/>
</svg>
