<svg xmlns="http://www.w3.org/2000/svg" width="43.229" height="43.229" viewBox="0 0 43.229 43.229">
  <g id="_104---Clone-Drive" data-name="104---Clone-Drive" transform="translate(1 1)">
    <path id="Shape" d="M22.823,13H3.681A3.686,3.686,0,0,0,0,16.681v20.7a5.134,5.134,0,0,1,3.681-1.554H22.823A5.134,5.134,0,0,1,26.5,37.377v-20.7A3.686,3.686,0,0,0,22.823,13ZM2.945,32.142a.736.736,0,0,1-1.472,0V20.362a.736.736,0,1,1,1.472,0Zm0-14.725a.736.736,0,1,1-1.472,0v-.736a.736.736,0,1,1,1.472,0Z" transform="translate(0 -3.429)" fill="none" stroke="#fff" stroke-width="2"/>
    <ellipse id="Oval" cy="1" ry="1" transform="translate(38.645 26.983)" fill="none" stroke="#fff" stroke-width="2"/>
    <path id="Shape-2" data-name="Shape" d="M22.823,46H3.681a3.681,3.681,0,0,0,0,7.362H22.823a3.681,3.681,0,0,0,0-7.362Zm0,5.89a2.209,2.209,0,1,1,2.209-2.209A2.209,2.209,0,0,1,22.823,51.89Z" transform="translate(0 -12.134)" fill="none" stroke="#fff" stroke-width="2"/>
    <circle id="Oval-2" data-name="Oval" transform="translate(23.645 37.983)" fill="none" stroke="#fff" stroke-width="2"/>
    <path id="Shape-3" data-name="Shape" d="M42.823,0H23.681A3.686,3.686,0,0,0,20,3.681V8.1h1.472V7.362a.736.736,0,1,1,1.472,0V8.1H28.1a5.159,5.159,0,0,1,5.154,5.154v9.571h9.571A5.134,5.134,0,0,1,46.5,24.377V3.681A3.686,3.686,0,0,0,42.823,0ZM22.945,4.417a.736.736,0,1,1-1.472,0V3.681a.736.736,0,1,1,1.472,0Z" transform="translate(-5.275)" fill="none" stroke="#fff" stroke-width="2"/>
    <path id="Shape-4" data-name="Shape" d="M47.571,33H38v7.362h9.571a3.681,3.681,0,0,0,0-7.362Zm0,5.89a2.209,2.209,0,1,1,2.209-2.209A2.209,2.209,0,0,1,47.571,38.89Z" transform="translate(-10.023 -8.704)" fill="none" stroke="#fff" stroke-width="2"/>
  </g>
</svg>
