<svg xmlns="http://www.w3.org/2000/svg" width="139.802" height="139.798" viewBox="0 0 139.802 139.798">
  <g id="item-search" transform="translate(0)">
    <path id="Path_4703" data-name="Path 4703" d="M42.928,69.5a37.28,37.28,0,0,0,0,52.719l3.292-3.293a32.618,32.618,0,0,1,0-46.133Zm0,0" transform="translate(-22.687 -49.255)" fill="#fff"/>
    <path id="Path_4704" data-name="Path 4704" d="M136.142,118.155,103.825,85.861A12.5,12.5,0,0,0,94.878,82.2a12.23,12.23,0,0,0-3.076.443L83.81,74.631l-.047-.047a47.038,47.038,0,0,0,7.083-13.4,51.234,51.234,0,0,0,1.35-5.009c.14-.629.257-1.236.35-1.865s.209-1.258.279-1.887c.071-.536.14-1.094.187-1.63.117-1.4.187-2.8.187-4.195A46.6,46.6,0,1,0,46.6,93.2c1.4,0,2.8-.069,4.2-.187.536-.047,1.1-.116,1.631-.185q.944-.106,1.887-.28c.629-.093,1.258-.209,1.864-.349a51.391,51.391,0,0,0,5.009-1.352,46.825,46.825,0,0,0,13.421-7.083L82.645,91.8a12.472,12.472,0,0,0,3.215,12.023l32.294,32.317a12.53,12.53,0,0,0,8.877,3.658h.093A12.729,12.729,0,0,0,139.8,127.125a12.522,12.522,0,0,0-3.658-8.971ZM46.6,88.54A41.94,41.94,0,1,1,88.54,46.6,41.94,41.94,0,0,1,46.6,88.54Zm39.33-2.609a13.546,13.546,0,0,0-1.165,1.421l-6.524-6.547-.047-.047c.885-.816,1.747-1.678,2.563-2.563l.047.047,6.547,6.525a13.278,13.278,0,0,0-1.422,1.165Zm0,0" transform="translate(0.001)" fill="#fff"/>
  </g>
</svg>
