<svg xmlns="http://www.w3.org/2000/svg" width="187" height="137.134" viewBox="0 0 187 137.134">
  <g id="item-tyre" transform="translate(0 0)">
    <path id="Path_4705" data-name="Path 4705" d="M173.417,10H129.783A15.6,15.6,0,0,0,114.2,25.584v.109A67.878,67.878,0,0,0,70.567,10a68.567,68.567,0,1,0,0,137.133A67.878,67.878,0,0,0,114.2,131.441v.109a15.6,15.6,0,0,0,15.583,15.583h43.633A15.6,15.6,0,0,0,189,131.55V25.584A15.6,15.6,0,0,0,173.417,10ZM160.95,117.158l-9.35,4.675-9.35-4.675V102.31l7.957,4a3.117,3.117,0,0,0,2.786,0l7.957-4Zm0-21.817-9.35,4.675-9.35-4.675V80.493l7.957,4a3.117,3.117,0,0,0,2.786,0l7.957-4Zm0-21.817L151.6,78.2l-9.35-4.675V58.676l7.957,4a3.117,3.117,0,0,0,2.786,0l7.957-4Zm0-21.817-9.35,4.675-9.35-4.675V33.743l7.957,4a3.117,3.117,0,0,0,2.786,0l7.957-4Zm-18.7,72.419,7.957,4a3.117,3.117,0,0,0,2.786,0l7.957-4V140.9h-18.7Zm18.7-97.352-9.35,4.675-9.35-4.675V16.234h18.7Zm-48.62,97.96a62.529,62.529,0,0,1-7.948,6.165l-4.622-8-5.4,3.117,4.628,8.013a61.216,61.216,0,0,1-9.3,3.874l-2.4-8.96-6.021,1.614,2.4,8.951a62.781,62.781,0,0,1-9.973,1.247v-9.2H67.45v9.191a61.825,61.825,0,0,1-9.973-1.247l2.394-8.935L53.85,128.95l-2.394,8.936A62.055,62.055,0,0,1,42.175,134l4.606-7.976-5.4-3.117-4.6,7.972a62.612,62.612,0,0,1-7.954-6.146l6.486-6.486L30.9,113.835l-6.492,6.5a62.616,62.616,0,0,1-6.146-7.954l7.972-4.6-3.117-5.4-7.976,4.591a62.052,62.052,0,0,1-3.886-9.281l8.945-2.4L18.581,89.27,9.645,91.657A61.826,61.826,0,0,1,8.4,81.684h9.185V75.45H8.392a61.825,61.825,0,0,1,1.247-9.973l8.935,2.394,1.614-6.021-8.935-2.394a62.054,62.054,0,0,1,3.886-9.281l7.976,4.606,3.117-5.4-7.966-4.61a62.615,62.615,0,0,1,6.146-7.954L30.9,43.3l4.4-4.4-6.486-6.486a62.614,62.614,0,0,1,7.954-6.146l4.6,7.972,5.4-3.117-4.606-7.976a62.053,62.053,0,0,1,9.281-3.886l2.4,8.939,6.021-1.614-2.387-8.935A61.823,61.823,0,0,1,67.45,16.4v9.185h6.233v-9.2a62.786,62.786,0,0,1,9.973,1.247l-2.4,8.951L87.278,28.2l2.4-8.96a61.214,61.214,0,0,1,9.3,3.874L94.35,31.127l5.4,3.117,4.622-8a62.521,62.521,0,0,1,7.948,6.165l-6.5,6.5,4.41,4.407,3.977-3.968V117.8l-3.964-3.964-4.41,4.407Zm8.1,6.816v-3.117h6.233V122.2H120.43v-6.233h6.233v-6.233H120.43V103.5h6.233V97.267H120.43V91.034h6.233V84.8H120.43V78.567h6.233V72.334H120.43V66.1h6.233V59.867H120.43V53.634h6.233V47.4H120.43V41.167h6.233V34.934H120.43V28.7h6.233V22.467H121a9.35,9.35,0,0,1,8.777-6.233h6.233V140.9H129.78a9.35,9.35,0,0,1-9.347-9.35Zm52.983,9.35H167.18V16.234h6.233a9.35,9.35,0,0,1,8.777,6.233h-5.66V28.7h6.233v6.233H176.53v6.233h6.233V47.4H176.53v6.233h6.233v6.233H176.53V66.1h6.233v6.233H176.53v6.233h6.233V84.8H176.53v6.233h6.233v6.233H176.53V103.5h6.233v6.233H176.53v6.233h6.233V122.2H176.53v6.233h6.233v3.117a9.35,9.35,0,0,1-9.346,9.35Z" transform="translate(-2 -10)" fill="#fff"/>
    <path id="Path_4706" data-name="Path 4706" d="M32.467,28A12.467,12.467,0,1,0,44.933,40.467,12.467,12.467,0,0,0,32.467,28Zm0,18.7A6.233,6.233,0,1,1,38.7,40.467,6.233,6.233,0,0,1,32.467,46.7Z" transform="translate(36.1 28.1)" fill="#fff"/>
    <path id="Path_4707" data-name="Path 4707" d="M53.633,18A43.633,43.633,0,1,0,97.267,61.633,43.633,43.633,0,0,0,53.633,18Zm0,81.033a37.4,37.4,0,1,1,37.4-37.4,37.4,37.4,0,0,1-37.4,37.4Z" transform="translate(14.933 6.934)" fill="#fff"/>
    <circle id="Ellipse_23" data-name="Ellipse 23" cx="6" cy="6" r="6" transform="translate(62 36.745)" fill="#fff"/>
    <path id="Path_4708" data-name="Path 4708" d="M24.423,26.836h0a6.235,6.235,0,1,0-6.233,10.8,6.168,6.168,0,0,0,3.117.835A6.233,6.233,0,0,0,24.424,26.84Z" transform="translate(25.668 23.866)" fill="#fff"/>
    <path id="Path_4709" data-name="Path 4709" d="M18.2,34.832h0a6.233,6.233,0,1,0,8.5,2.281,6.233,6.233,0,0,0-8.5-2.281Z" transform="translate(25.662 40.803)" fill="#fff"/>
    <ellipse id="Ellipse_24" data-name="Ellipse 24" cx="6" cy="6.5" rx="6" ry="6.5" transform="translate(62 86.745)" fill="#fff"/>
    <path id="Path_4710" data-name="Path 4710" d="M38.279,34.836a6.235,6.235,0,1,0-6.233,10.8h0a6.159,6.159,0,0,0,3.117.835A6.233,6.233,0,0,0,38.28,34.84Z" transform="translate(54.997 40.8)" fill="#fff"/>
    <path id="Path_4711" data-name="Path 4711" d="M32.045,26.836a6.233,6.233,0,0,0,3.117,11.631,6.168,6.168,0,0,0,3.117-.835h0a6.235,6.235,0,0,0-6.233-10.8Z" transform="translate(54.997 23.866)" fill="#fff"/>
  </g>
</svg>
