<svg id="Component_5_1" data-name="Component 5 – 1" xmlns="http://www.w3.org/2000/svg" width="55" height="55" viewBox="0 0 55 55">
  <g id="Ellipse_22" data-name="Ellipse 22" fill="none" stroke="#fff" stroke-width="1">
    <circle cx="27.5" cy="27.5" r="27.5" stroke="none"/>
    <circle cx="27.5" cy="27.5" r="27" fill="none"/>
  </g>
  <g id="car" transform="translate(7.378 19.925)">
    <g id="Group_3212" data-name="Group 3212" transform="translate(0 0)">
      <path id="Path_4697" data-name="Path 4697" d="M12.872,52.156a3.065,3.065,0,0,0-3.065,3.065,2.977,2.977,0,0,0,.027.385,3.063,3.063,0,0,0,6.09-.124c.007-.086.013-.173.013-.261A3.064,3.064,0,0,0,12.872,52.156Zm-1.534,1.91.625.625a1.058,1.058,0,0,0-.111.269h-.881A1.893,1.893,0,0,1,11.338,54.066Zm-.371,1.425h.888a1.028,1.028,0,0,0,.111.266l-.626.626A1.918,1.918,0,0,1,10.967,55.491Zm1.641,1.634a1.909,1.909,0,0,1-.889-.369l.623-.623a1.055,1.055,0,0,0,.266.108Zm0-2.924a1.065,1.065,0,0,0-.271.113l-.624-.624a1.9,1.9,0,0,1,.9-.37Zm.531-.882a1.908,1.908,0,0,1,.9.371l-.624.624a1.065,1.065,0,0,0-.271-.113v-.882Zm0,3.805v-.883a1.047,1.047,0,0,0,.266-.108l.623.623A1.91,1.91,0,0,1,13.138,57.125Zm1.269-.738-.628-.629a1.036,1.036,0,0,0,.114-.265h.881A1.912,1.912,0,0,1,14.407,56.386Zm-.513-1.426a1.073,1.073,0,0,0-.111-.269l.626-.625a1.913,1.913,0,0,1,.367.895h-.881Z" transform="translate(-5.781 -43.832)" fill="#fff"/>
      <path id="Path_4698" data-name="Path 4698" d="M74.881,52.156a3.065,3.065,0,0,0-3.065,3.065,2.976,2.976,0,0,0,.027.385,3.063,3.063,0,0,0,6.09-.124c.007-.086.013-.173.013-.261A3.064,3.064,0,0,0,74.881,52.156Zm-1.534,1.91.624.625a1.059,1.059,0,0,0-.111.269h-.881A1.9,1.9,0,0,1,73.347,54.066Zm-.371,1.425h.888a1.027,1.027,0,0,0,.111.266l-.626.626A1.9,1.9,0,0,1,72.976,55.491Zm1.64,1.634a1.909,1.909,0,0,1-.889-.369l.623-.623a1.055,1.055,0,0,0,.266.108Zm0-2.924a1.065,1.065,0,0,0-.271.113l-.624-.624a1.9,1.9,0,0,1,.9-.37Zm.531-.882a1.908,1.908,0,0,1,.9.371l-.624.624a1.036,1.036,0,0,0-.271-.113Zm0,3.805v-.883a1.047,1.047,0,0,0,.266-.108l.623.623A1.912,1.912,0,0,1,75.147,57.125Zm1.269-.738-.628-.628a1.024,1.024,0,0,0,.114-.266h.881A1.908,1.908,0,0,1,76.416,56.386ZM75.9,54.961a1.058,1.058,0,0,0-.111-.269l.625-.625a1.914,1.914,0,0,1,.367.895H75.9Z" transform="translate(-42.338 -43.832)" fill="#fff"/>
      <path id="Path_4699" data-name="Path 4699" d="M39.9,38.614V36.345a.738.738,0,0,0-.626-.73,30.2,30.2,0,0,1-3.087-.6c-.988-.3-4.8-1.92-6.125-2.223s-7.281-1.923-12.988.055c-.966.335-5.311,2.411-7.865,3.491-.752.016-8.2,1.569-8.6,2.633a17.207,17.207,0,0,0-.594,1.851,4.364,4.364,0,0,0,.553,2.463,8.888,8.888,0,0,0,2.9.677c-.014-.077-.03-.152-.04-.23a3.53,3.53,0,0,1-.032-.462,3.681,3.681,0,1,1,7.362,0c0,.1-.007.208-.015.309a3.582,3.582,0,0,1-.12.662h.01l18.272-.368c-.008-.047-.019-.094-.025-.142a3.516,3.516,0,0,1-.032-.462,3.681,3.681,0,0,1,7.363,0c0,.008,0,.014,0,.022l.078-.007,3.124-.588a2.66,2.66,0,0,0,1.2-2.39A2.108,2.108,0,0,0,39.9,38.614Zm-18.126-2.15-6.824.209c.126-1.022-.48-1.252-.48-1.252,2.713-2.462,8.18-2.546,8.18-2.546Zm7.658-.312-6.219.209.564-3.485a14.731,14.731,0,0,1,5.05.667l.918,1.482Zm3.506-.021H31.209l-1.732-2.379c1.3.517,2.34,1.027,2.959,1.349A.966.966,0,0,1,32.942,36.129Z" transform="translate(0.001 -31.876)" fill="#fff"/>
    </g>
  </g>
</svg>
