<svg xmlns="http://www.w3.org/2000/svg" width="156.997" height="152.796" viewBox="0 0 156.997 152.796">
  <g id="Group_3264" data-name="Group 3264" transform="translate(0)">
    <path id="Path_4734" data-name="Path 4734" d="M113.043,350.322a16.39,16.39,0,1,0,16.39,16.39,16.39,16.39,0,0,0-16.39-16.39Zm0,25.5a9.106,9.106,0,1,1,9.106-9.106,9.106,9.106,0,0,1-9.106,9.106Z" transform="translate(-62.961 -230.306)" fill="#fff"/>
    <path id="Path_4735" data-name="Path 4735" d="M311.574,350.322a16.39,16.39,0,1,0,16.39,16.39,16.39,16.39,0,0,0-16.39-16.39Zm0,25.5a9.106,9.106,0,1,1,9.106-9.106,9.106,9.106,0,0,1-9.106,9.106Z" transform="translate(-192.287 -230.306)" fill="#fff"/>
    <path id="Path_4736" data-name="Path 4736" d="M156.257,30.432a4.554,4.554,0,0,0-2.914-1.457L34.785,27.336,31.507,17.319A16.755,16.755,0,0,0,15.844,6.028H3.642a3.642,3.642,0,1,0,0,7.285h12.2a9.471,9.471,0,0,1,8.742,6.374L47.715,89.438l-1.821,4.189a17.483,17.483,0,0,0,1.639,15.844,16.937,16.937,0,0,0,13.659,7.649h70.844a3.642,3.642,0,1,0,0-7.285H61.192a9.288,9.288,0,0,1-7.649-4.371,10.016,10.016,0,0,1-.911-8.742l1.457-3.278,76.672-8.013a20.033,20.033,0,0,0,17.3-15.3l8.739-36.6A3.1,3.1,0,0,0,156.257,30.432Zm-15.3,38.062a12.384,12.384,0,0,1-11.109,9.652L54.089,85.978,37.152,34.621,148.791,36.26Z" transform="translate(0 -6.028)" fill="#fff"/>
  </g>
</svg>
