<svg xmlns="http://www.w3.org/2000/svg" width="177.837" height="178.008" viewBox="0 0 177.837 178.008">
  <g id="item-travel" transform="translate(0 0.005)">
    <g id="Group_3221" data-name="Group 3221" transform="translate(0 53.505)">
      <g id="Group_3220" data-name="Group 3220">
        <path id="Path_4712" data-name="Path 4712" d="M43.876,153.9A43.692,43.692,0,0,0,.233,197.545c0,14.941,7.107,31.006,21.125,47.747,2.083,2.487,4.158,4.792,6.15,6.9-9.051,2.47-14.485,6.909-14.485,12.089,0,9.171,15.9,14.119,30.851,14.119s30.851-4.949,30.851-14.119c0-5.176-5.432-9.616-14.477-12.087A142.1,142.1,0,0,0,71.439,238.88a2.61,2.61,0,1,0-4.2-3.1,140.146,140.146,0,0,1-13.485,15.58,2.61,2.61,0,0,0-1.138,1.13c-3.769,3.7-6.94,6.451-8.739,7.952-1.78-1.487-4.9-4.2-8.623-7.852a2.611,2.611,0,0,0-1.308-1.3C22.123,239.4,5.453,218.853,5.453,197.546a38.423,38.423,0,0,1,76.845,0c0,9.252-3.153,19.244-9.37,29.7a2.61,2.61,0,1,0,4.487,2.669c6.7-11.272,10.1-22.162,10.1-32.366A43.692,43.692,0,0,0,43.876,153.9Zm-1.6,111.969a2.611,2.611,0,0,0,3.2,0,132.676,132.676,0,0,0,10.5-9.334c8.8,1.8,13.537,5.252,13.537,7.74,0,1.858-2.547,4.051-6.647,5.721-5.028,2.049-11.771,3.178-18.984,3.178-15.647,0-25.631-5.271-25.631-8.9,0-2.492,4.735-5.947,13.543-7.742a132.646,132.646,0,0,0,10.489,9.339Z" transform="translate(-0.233 -153.902)" fill="#fff"/>
      </g>
    </g>
    <g id="Group_3223" data-name="Group 3223" transform="translate(24.667 78.171)">
      <g id="Group_3222" data-name="Group 3222">
        <path id="Path_4713" data-name="Path 4713" d="M90.162,224.854a18.82,18.82,0,0,0-11.353,3.769,2.61,2.61,0,1,0,3.126,4.181,13.719,13.719,0,1,1-5,7.223,2.61,2.61,0,1,0-5.017-1.44,18.978,18.978,0,1,0,18.241-13.733Z" transform="translate(-71.187 -224.854)" fill="#fff"/>
      </g>
    </g>
    <g id="Group_3225" data-name="Group 3225" transform="translate(109.544)">
      <g id="Group_3224" data-name="Group 3224">
        <path id="Path_4714" data-name="Path 4714" d="M363.175,75.831c1.328-1.425,2.7-2.96,4.068-4.6C378.11,58.253,383.62,45.776,383.62,34.146a34.151,34.151,0,0,0-65.608-13.292,2.61,2.61,0,1,0,4.807,2.034A28.932,28.932,0,0,1,378.4,34.147c0,21.57-22.646,42.235-28.927,47.55-1.384-1.17-3.563-3.085-6.118-5.589a2.607,2.607,0,0,0-1.161-1.154c-9.012-9.074-21.646-24.672-21.646-40.808a2.61,2.61,0,0,0-5.22,0c0,11.629,5.51,24.106,16.377,37.085,1.371,1.638,2.738,3.172,4.066,4.6-6.729,2.022-10.613,5.463-10.613,9.606,0,3.5,2.835,6.574,7.983,8.672a49.309,49.309,0,0,0,32.666,0c5.147-2.1,7.982-5.178,7.982-8.672C373.788,81.3,369.9,77.855,363.175,75.831Zm-13.7,15.84c-12.355,0-19.1-4.119-19.1-6.236,0-1.379,3.066-3.9,9.613-5.294a101.976,101.976,0,0,0,7.886,7,2.611,2.611,0,0,0,3.2,0,101.861,101.861,0,0,0,7.885-7,23.925,23.925,0,0,1,7.212,2.609c1.5.916,2.4,1.919,2.4,2.684,0,2.117-6.738,6.236-19.093,6.236Z" transform="translate(-315.327)" fill="#fff"/>
      </g>
    </g>
    <g id="Group_3227" data-name="Group 3227" transform="translate(128.502 18.958)">
      <g id="Group_3226" data-name="Group 3226">
        <path id="Path_4715" data-name="Path 4715" d="M385.047,54.532A15.188,15.188,0,1,0,400.235,69.72a15.188,15.188,0,0,0-15.188-15.188Zm0,25.156a9.968,9.968,0,1,1,9.968-9.968,9.968,9.968,0,0,1-9.968,9.968Z" transform="translate(-369.859 -54.532)" fill="#fff"/>
      </g>
    </g>
    <g id="Group_3229" data-name="Group 3229" transform="translate(103.782 82.825)">
      <g id="Group_3228" data-name="Group 3228">
        <path id="Path_4716" data-name="Path 4716" d="M304.8,238.239h-1.192a19.71,19.71,0,0,0-2.6.171,2.61,2.61,0,1,0,.692,5.175,14.511,14.511,0,0,1,1.9-.125h1.2a2.61,2.61,0,1,0,0-5.221Z" transform="translate(-298.753 -238.239)" fill="#fff"/>
      </g>
    </g>
    <g id="Group_3231" data-name="Group 3231" transform="translate(95.146 161.137)">
      <g id="Group_3230" data-name="Group 3230">
        <path id="Path_4717" data-name="Path 4717" d="M279.969,463.5h-.012l-3.447.016a2.61,2.61,0,0,0,.011,5.22h.012l3.447-.016a2.61,2.61,0,0,0-.012-5.22Z" transform="translate(-273.911 -463.496)" fill="#fff"/>
      </g>
    </g>
    <g id="Group_3233" data-name="Group 3233" transform="translate(106.872 116.634)">
      <g id="Group_3232" data-name="Group 3232">
        <path id="Path_4718" data-name="Path 4718" d="M313.7,335.489h-3.447a2.61,2.61,0,1,0,0,5.22H313.7a2.61,2.61,0,0,0,0-5.22Z" transform="translate(-307.642 -335.489)" fill="#fff"/>
      </g>
    </g>
    <g id="Group_3235" data-name="Group 3235" transform="translate(92.29 87.303)">
      <g id="Group_3234" data-name="Group 3234">
        <path id="Path_4719" data-name="Path 4719" d="M272.507,251.96a2.611,2.611,0,0,0-3.688-.149,19.622,19.622,0,0,0-2.631,2.973,2.61,2.61,0,0,0,4.24,3.045,14.428,14.428,0,0,1,1.93-2.182,2.61,2.61,0,0,0,.149-3.687Z" transform="translate(-265.698 -251.12)" fill="#fff"/>
      </g>
    </g>
    <g id="Group_3237" data-name="Group 3237" transform="translate(108.936 161.073)">
      <g id="Group_3236" data-name="Group 3236">
        <path id="Path_4720" data-name="Path 4720" d="M319.635,463.314h-.012l-3.447.016a2.61,2.61,0,0,0,.011,5.22h.012l3.447-.016a2.61,2.61,0,0,0-.011-5.22Z" transform="translate(-313.578 -463.314)" fill="#fff"/>
      </g>
    </g>
    <g id="Group_3239" data-name="Group 3239" transform="translate(81.356 161.199)">
      <g id="Group_3238" data-name="Group 3238">
        <path id="Path_4721" data-name="Path 4721" d="M240.3,463.675h-.012l-3.447.016a2.61,2.61,0,0,0,.011,5.22h.012l3.447-.016a2.61,2.61,0,0,0-.011-5.22Z" transform="translate(-234.246 -463.675)" fill="#fff"/>
      </g>
    </g>
    <g id="Group_3241" data-name="Group 3241" transform="translate(94.315 111.917)">
      <g id="Group_3240" data-name="Group 3240">
        <path id="Path_4722" data-name="Path 4722" d="M278.235,324.442a14.4,14.4,0,0,1-2.292-1.8,2.61,2.61,0,0,0-3.619,3.762,19.619,19.619,0,0,0,3.126,2.448,2.61,2.61,0,1,0,2.785-4.415Z" transform="translate(-271.523 -321.919)" fill="#fff"/>
      </g>
    </g>
    <g id="Group_3243" data-name="Group 3243" transform="translate(89.126 99.555)">
      <g id="Group_3242" data-name="Group 3242">
        <path id="Path_4723" data-name="Path 4723" d="M262.082,291.9a14.425,14.425,0,0,1-.264-2.751V289a2.61,2.61,0,0,0-2.58-2.64h-.031a2.61,2.61,0,0,0-2.609,2.58v.206a19.654,19.654,0,0,0,.361,3.751,2.61,2.61,0,1,0,5.124-1Z" transform="translate(-256.597 -286.361)" fill="#fff"/>
      </g>
    </g>
    <g id="Group_3245" data-name="Group 3245" transform="translate(120.663 116.634)">
      <g id="Group_3244" data-name="Group 3244">
        <path id="Path_4724" data-name="Path 4724" d="M353.367,335.489H349.92a2.61,2.61,0,1,0,0,5.22h3.447a2.61,2.61,0,1,0,0-5.22Z" transform="translate(-347.309 -335.489)" fill="#fff"/>
      </g>
    </g>
    <g id="Group_3247" data-name="Group 3247" transform="translate(161.54 119.47)">
      <g id="Group_3246" data-name="Group 3246">
        <path id="Path_4725" data-name="Path 4725" d="M471.975,346.124a24.845,24.845,0,0,0-3.2-2.142,2.61,2.61,0,1,0-2.562,4.548,19.684,19.684,0,0,1,2.522,1.692,2.612,2.612,0,1,0,3.236-4.1Z" transform="translate(-464.888 -343.645)" fill="#fff"/>
      </g>
    </g>
    <g id="Group_3249" data-name="Group 3249" transform="translate(150.306 160.69)">
      <g id="Group_3248" data-name="Group 3248">
        <path id="Path_4726" data-name="Path 4726" d="M441.207,464.465a2.611,2.611,0,0,0-2.943-2.228,19.63,19.63,0,0,1-2.6.184h-.488a2.61,2.61,0,0,0,.012,5.22h.5a24.935,24.935,0,0,0,3.294-.233,2.61,2.61,0,0,0,2.225-2.943Z" transform="translate(-432.575 -462.211)" fill="#fff"/>
      </g>
    </g>
    <g id="Group_3251" data-name="Group 3251" transform="translate(163.288 154.793)">
      <g id="Group_3250" data-name="Group 3250">
        <path id="Path_4727" data-name="Path 4727" d="M477.087,446.061a2.609,2.609,0,0,0-3.69-.09,19.717,19.717,0,0,1-2.356,1.92,2.61,2.61,0,0,0,2.974,4.291A24.964,24.964,0,0,0,477,449.751a2.61,2.61,0,0,0,.087-3.69Z" transform="translate(-469.918 -445.25)" fill="#fff"/>
      </g>
    </g>
    <g id="Group_3253" data-name="Group 3253" transform="translate(171.545 142.881)">
      <g id="Group_3252" data-name="Group 3252">
        <path id="Path_4728" data-name="Path 4728" d="M497.66,411.033a2.611,2.611,0,0,0-3.048,2.082,19.554,19.554,0,0,1-.793,2.93,2.611,2.611,0,0,0,4.918,1.753,24.758,24.758,0,0,0,1.006-3.717,2.611,2.611,0,0,0-2.083-3.048Z" transform="translate(-493.667 -410.987)" fill="#fff"/>
      </g>
    </g>
    <g id="Group_3255" data-name="Group 3255" transform="translate(170.761 129.419)">
      <g id="Group_3254" data-name="Group 3254">
        <path id="Path_4729" data-name="Path 4729" d="M497.739,377.382a24.655,24.655,0,0,0-1.351-3.61,2.61,2.61,0,0,0-4.731,2.207,19.409,19.409,0,0,1,1.064,2.843,2.61,2.61,0,1,0,5.018-1.44Z" transform="translate(-491.412 -372.265)" fill="#fff"/>
      </g>
    </g>
    <g id="Group_3257" data-name="Group 3257" transform="translate(134.453 116.634)">
      <g id="Group_3256" data-name="Group 3256">
        <path id="Path_4730" data-name="Path 4730" d="M393.032,335.489h-3.447a2.61,2.61,0,1,0,0,5.22h3.447a2.61,2.61,0,1,0,0-5.22Z" transform="translate(-386.975 -335.489)" fill="#fff"/>
      </g>
    </g>
    <g id="Group_3259" data-name="Group 3259" transform="translate(122.726 161.011)">
      <g id="Group_3258" data-name="Group 3258">
        <path id="Path_4731" data-name="Path 4731" d="M359.3,463.134h-.012l-3.447.016a2.61,2.61,0,1,0,.012,5.22h.012l3.447-.016a2.61,2.61,0,0,0-.011-5.22Z" transform="translate(-353.243 -463.134)" fill="#fff"/>
      </g>
    </g>
    <g id="Group_3261" data-name="Group 3261" transform="translate(148.242 116.635)">
      <g id="Group_3260" data-name="Group 3260">
        <path id="Path_4732" data-name="Path 4732" d="M432.813,335.515c-.369-.017-.743-.025-1.111-.025H429.25a2.61,2.61,0,0,0,0,5.22h2.45q.443,0,.88.019h.118a2.61,2.61,0,1,0,.113-5.218Z" transform="translate(-426.64 -335.49)" fill="#fff"/>
      </g>
    </g>
    <g id="Group_3263" data-name="Group 3263" transform="translate(136.515 160.949)">
      <g id="Group_3262" data-name="Group 3262">
        <path id="Path_4733" data-name="Path 4733" d="M398.966,462.955h-.012l-3.447.016a2.61,2.61,0,1,0,.011,5.22h.012l3.447-.016a2.61,2.61,0,0,0-.011-5.22Z" transform="translate(-392.908 -462.955)" fill="#fff"/>
      </g>
    </g>
  </g>
</svg>
